<svg width="44" height="24" viewBox="0 0 44 24" fill="none" xmlns="http://www.w3.org/2000/svg">
<path d="M6.56999 11.6635L13.0831 5.15041L10.111 2.17828C8.13427 0.194481 4.92749 0.194481 2.9437 2.17828L0 5.12197L6.56999 11.6635Z" fill="#2E343F"/>
<path d="M26.1734 5.12912L23.2226 2.17831C21.2459 0.20163 18.032 0.20163 16.0554 2.17831L13.0903 5.14334L19.6105 11.6636L26.1734 5.12912Z" fill="#2E343F"/>
<path d="M6.5415 11.6423L9.49231 14.5932C11.469 16.5698 14.6829 16.5698 16.6596 14.5932L19.6246 11.6281L13.1044 5.10791L6.5415 11.6423Z" fill="#2E343F"/>
<path d="M40.6643 2.17831C38.6876 0.20163 35.4737 0.20163 33.4971 2.17831L16.2046 19.4636H16.1975L19.1554 22.4287L19.2336 22.5069C21.189 24.4622 24.3389 24.4836 26.3227 22.578C26.3227 22.578 26.3796 22.5282 26.4009 22.5069L43.6933 5.20733L40.6643 2.17831Z" fill="#2E343F"/>
</svg>
